<svg xmlns="http://www.w3.org/2000/svg" width="2100" height="1280" viewBox="0 0 2100 1280" role="img" aria-labelledby="title desc">
  <title id="title">Capas y dependencias actuales</title>
  <desc id="desc">Arquitectura actual de RRHH y Autenticacion: modulos Maven, framework compartido, puertos, adapters, SQL Server, Oracle e integracion REST.</desc>
  <defs>
    <style>
      .bg { fill: #f7fafc; }
      .title { fill: #0b2b5c; font: 700 44px Arial, sans-serif; }
      .subtitle { fill: #486171; font: 400 22px Arial, sans-serif; }
      .band-title { fill: #0b2b5c; font: 700 21px Arial, sans-serif; }
      .box-title { fill: #0b2b5c; font: 700 19px Arial, sans-serif; }
      .text { fill: #243746; font: 400 16px Arial, sans-serif; }
      .small { fill: #486171; font: 400 14px Arial, sans-serif; }
      .tiny { fill: #486171; font: 400 12px Arial, sans-serif; }
      .layer { fill: #ffffff; stroke: #b7cad8; stroke-width: 2; rx: 16; }
      .box { fill: #ffffff; stroke: #2364aa; stroke-width: 2.2; rx: 10; }
      .box-blue { fill: #eef6ff; stroke: #2364aa; stroke-width: 2.2; rx: 10; }
      .box-green { fill: #effaf4; stroke: #248a50; stroke-width: 2.2; rx: 10; }
      .box-yellow { fill: #fff8e6; stroke: #c98116; stroke-width: 2.2; rx: 10; }
      .box-purple { fill: #f2f0ff; stroke: #6d4aff; stroke-width: 2.2; rx: 10; }
      .box-red { fill: #fff1f1; stroke: #b42318; stroke-width: 2.2; rx: 10; }
      .shadow { filter: drop-shadow(0 8px 18px rgba(11, 43, 92, 0.12)); }
      .arrow { stroke: #0b4d8b; stroke-width: 4; fill: none; marker-end: url(#arrow); }
      .arrow-soft { stroke: #6c8798; stroke-width: 3; fill: none; stroke-dasharray: 8 7; marker-end: url(#arrow-soft); }
      .return { stroke: #248a50; stroke-width: 4; fill: none; marker-end: url(#arrow-green); }
      .pill { fill: #0b2b5c; }
      .pill-text { fill: #ffffff; font: 700 15px Arial, sans-serif; }
    </style>
    <marker id="arrow" markerWidth="12" markerHeight="10" refX="10" refY="5" orient="auto">
      <polygon points="0 0, 12 5, 0 10" fill="#0b4d8b"/>
    </marker>
    <marker id="arrow-soft" markerWidth="12" markerHeight="10" refX="10" refY="5" orient="auto">
      <polygon points="0 0, 12 5, 0 10" fill="#6c8798"/>
    </marker>
    <marker id="arrow-green" markerWidth="12" markerHeight="10" refX="10" refY="5" orient="auto">
      <polygon points="0 0, 12 5, 0 10" fill="#248a50"/>
    </marker>
  </defs>

  <rect class="bg" x="0" y="0" width="2100" height="1280"/>
  <text class="title" x="70" y="70">Capas y dependencias actuales</text>
  <text class="subtitle" x="70" y="106">Clean Architecture pragmatica + puertos/adapters + Maven multimodulo</text>
  <rect class="layer shadow" x="55" y="150" width="1990" height="155"/>
  <text class="band-title" x="85" y="190">Canales de entrada</text>
  <rect class="box shadow" x="110" y="215" width="330" height="65"/>
  <text class="box-title" x="132" y="247">Frontend / sistemas externos</text>
  <text class="text" x="132" y="275">HTTP REST + headers funcionales</text>
  <rect class="box-yellow shadow" x="520" y="205" width="395" height="85"/>
  <text class="box-title" x="542" y="237">Filtros web compartidos</text>
  <text class="text" x="542" y="265">ApiKeyAuthenticationFilter</text>
  <text class="text" x="542" y="290">RateLimitFilter, CORS, security headers</text>
  <rect class="box-blue shadow" x="995" y="205" width="415" height="85"/>
  <text class="box-title" x="1017" y="237">royal-framework-web</text>
  <text class="text" x="1017" y="265">RoyalResponse, errores estandar</text>
  <text class="text" x="1017" y="290">FunctionalContextFactory, RestApiClient</text>
  <path class="arrow" d="M440 248 H510"/>
  <path class="arrow" d="M915 248 H985"/>
  <rect class="layer shadow" x="55" y="335" width="960" height="620"/>
  <text class="band-title" x="85" y="375">Modulo RRHH</text>
  <rect class="box-blue shadow" x="95" y="415" width="370" height="120"/>
  <text class="box-title" x="117" y="447">royal-rrhh-api</text>
  <text class="text" x="117" y="475">Controllers REST V1</text>
  <text class="text" x="117" y="500">MantenimientoParametro, TipoSeguro</text>
  <text class="text" x="117" y="525">Reporte, aprobacion masiva, capacitacion</text>
  <rect class="box-green shadow" x="95" y="575" width="370" height="140"/>
  <text class="box-title" x="117" y="607">royal-rrhh-application</text>
  <text class="text" x="117" y="635">Use cases V1/V2 + commands/results</text>
  <text class="text" x="117" y="660">Ports por caso de uso</text>
  <text class="text" x="117" y="685">Functional version proxy + guards</text>
  <rect class="box shadow" x="95" y="755" width="370" height="110"/>
  <text class="box-title" x="117" y="787">royal-rrhh-domain</text>
  <text class="text" x="117" y="815">Parametro, TipoSeguro</text>
  <text class="text" x="117" y="840">Capacitacion, Requerimiento</text>
  <text class="text" x="117" y="865">Sin Spring ni JDBC</text>
  <rect class="box-purple shadow" x="575" y="515" width="365" height="185"/>
  <text class="box-title" x="597" y="547">royal-rrhh-infrastructure</text>
  <text class="text" x="597" y="575">Adapters SQL Server y Oracle</text>
  <text class="text" x="597" y="600">Adapters InMemory demo/test</text>
  <text class="text" x="597" y="625">RestConsultaPermisoAdapter</text>
  <text class="text" x="597" y="650">JasperReporteParametrosDocumentGenerator</text>
  <rect class="box-yellow shadow" x="575" y="755" width="365" height="145"/>
  <text class="box-title" x="597" y="787">royal-rrhh-bootstrap / war</text>
  <text class="text" x="597" y="815">Spring Boot wiring</text>
  <text class="text" x="597" y="840">royal.persistence.adapter</text>
  <text class="text" x="597" y="865">client-catalog.xml, functional-version-catalog.xml</text>
  <text class="text" x="597" y="890">JAR, WAR, Docker, Kubernetes</text>
  <path class="arrow" d="M280 535 V565"/>
  <path class="arrow" d="M280 715 V745"/>
  <path class="arrow" d="M465 635 H565"/>
  <path class="arrow-soft" d="M760 755 V710"/>
  <path class="arrow-soft" d="M575 820 H475"/>
  <rect class="layer shadow" x="1085" y="335" width="460" height="620"/>
  <text class="band-title" x="1115" y="375">Modulo Autenticacion</text>
  <rect class="box-blue shadow" x="1125" y="415" width="380" height="100"/>
  <text class="box-title" x="1147" y="447">royal-autenticacion-api</text>
  <text class="text" x="1147" y="475">LoginController</text>
  <text class="text" x="1147" y="500">ObtenerPermisoController</text>
  <rect class="box-green shadow" x="1125" y="555" width="380" height="115"/>
  <text class="box-title" x="1147" y="587">royal-autenticacion-application</text>
  <text class="text" x="1147" y="615">LoginSimpleUseCase</text>
  <text class="text" x="1147" y="640">ObtenerPermisoSimpleUseCase</text>
  <text class="text" x="1147" y="665">PermissionChecker</text>
  <rect class="box shadow" x="1125" y="710" width="380" height="90"/>
  <text class="box-title" x="1147" y="742">royal-autenticacion-domain</text>
  <text class="text" x="1147" y="770">Modelo de autenticacion</text>
  <text class="text" x="1147" y="795">Sin dependencias web</text>
  <rect class="box-yellow shadow" x="1125" y="835" width="380" height="80"/>
  <text class="box-title" x="1147" y="867">royal-autenticacion-bootstrap</text>
  <text class="text" x="1147" y="895">Spring Boot + framework-security</text>
  <path class="arrow" d="M1315 515 V545"/>
  <path class="arrow" d="M1315 670 V700"/>
  <path class="arrow-soft" d="M940 610 C1020 570, 1055 470, 1115 470"/>
  <text class="small" x="960" y="575">REST permisos / X-Api-Key</text>
  <rect class="layer shadow" x="1615" y="335" width="430" height="620"/>
  <text class="band-title" x="1645" y="375">Persistencia e integraciones</text>
  <rect class="box-purple shadow" x="1655" y="415" width="350" height="100"/>
  <text class="box-title" x="1677" y="447">Adapter configurable</text>
  <text class="text" x="1677" y="475">IN_MEMORY, SQL_SERVER, ORACLE</text>
  <text class="text" x="1677" y="500">Resuelto en bootstrap por propiedad</text>
  <rect class="box-blue shadow" x="1655" y="555" width="350" height="115"/>
  <text class="box-title" x="1677" y="587">SQL resources</text>
  <text class="text" x="1677" y="615">sql/hr/maestros/*</text>
  <text class="text" x="1677" y="640">oracle/hr/maestros/*</text>
  <text class="text" x="1677" y="665">JDBC support por motor</text>
  <rect class="box shadow" x="1655" y="710" width="350" height="100"/>
  <text class="box-title" x="1677" y="742">Bases de datos</text>
  <text class="text" x="1677" y="770">SQL Server / Oracle</text>
  <text class="text" x="1677" y="795">HR_Parametros, HR_TipoSeguro</text>
  <rect class="box-green shadow" x="1655" y="850" width="350" height="80"/>
  <text class="box-title" x="1677" y="882">Observabilidad / auditoria</text>
  <text class="text" x="1677" y="910">Actuator + Prometheus</text>
  <text class="text" x="1677" y="935">Console/JDBC audit</text>
  <path class="arrow" d="M940 570 C1180 330, 1560 340, 1650 465"/>
  <path class="arrow" d="M1830 515 V545"/>
  <path class="arrow" d="M1830 670 V700"/>
  <rect class="layer shadow" x="55" y="995" width="1990" height="210"/>
  <text class="band-title" x="85" y="1035">Framework tecnico compartido</text>
  <rect class="box-blue shadow" x="95" y="1070" width="200" height="85"/>
  <text class="box-title" x="117" y="1102">Kernel</text>
  <text class="text" x="117" y="1130">ClientCatalog, BusinessException</text>
  <rect class="box-blue shadow" x="310" y="1070" width="200" height="85"/>
  <text class="box-title" x="332" y="1102">Web</text>
  <text class="text" x="332" y="1130">Response, filtros, REST client</text>
  <rect class="box-blue shadow" x="525" y="1070" width="200" height="85"/>
  <text class="box-title" x="547" y="1102">Security</text>
  <text class="text" x="547" y="1130">UseCaseGuards, PermissionChecker</text>
  <rect class="box-blue shadow" x="740" y="1070" width="200" height="85"/>
  <text class="box-title" x="762" y="1102">Application</text>
  <text class="text" x="762" y="1130">RoyalBaseUseCase, version proxy</text>
  <rect class="box-blue shadow" x="955" y="1070" width="200" height="85"/>
  <text class="box-title" x="977" y="1102">Audit</text>
  <text class="text" x="977" y="1130">Console/JDBC/Composite</text>
  <rect class="box-blue shadow" x="1170" y="1070" width="200" height="85"/>
  <text class="box-title" x="1192" y="1102">Versioning</text>
  <text class="text" x="1192" y="1130">FunctionalVersionResolver</text>
  <rect class="box-blue shadow" x="1385" y="1070" width="200" height="85"/>
  <text class="box-title" x="1407" y="1102">Licensing</text>
  <text class="text" x="1407" y="1130">ClientCatalogLicenseChecker</text>
  <rect class="box-blue shadow" x="1600" y="1070" width="200" height="85"/>
  <text class="box-title" x="1622" y="1102">Observability</text>
  <text class="text" x="1622" y="1130">Micrometer, timers</text>
  <rect class="box-blue shadow" x="1815" y="1070" width="200" height="85"/>
  <text class="box-title" x="1837" y="1102">Database</text>
  <text class="text" x="1837" y="1130">PersistenceAdapterResolver</text>
  <rect class="box-red shadow" x="55" y="1220" width="1990" height="40"/>
  <text class="text" x="85" y="1246">Regla de dependencia: API e Infrastructure apuntan hacia Application/Domain. Application usa ports; Domain no conoce Spring, JDBC, REST ni framework web.</text>
</svg>